HIERARCHY
ROOT Hips
{
	OFFSET 0.00000 0.00000 0.00000
	CHANNELS 6 Xposition Yposition Zposition Zrotation Yrotation Xrotation 
	JOINT LHipJoint
	{
		OFFSET 0 0 0
		CHANNELS 3 Zrotation Yrotation Xrotation
		JOINT LeftHip
		{
			OFFSET 1.46561 -1.72757 0.83774
			CHANNELS 3 Zrotation Yrotation Xrotation
			JOINT LeftKnee
			{
				OFFSET 2.48915 -6.83890 0.00000
				CHANNELS 3 Zrotation Yrotation Xrotation
				JOINT LeftAnkle
				{
					OFFSET 2.60555 -7.15868 0.00000
					CHANNELS 3 Zrotation Yrotation Xrotation
					JOINT LeftToe
					{
						OFFSET 0.19248 -0.52884 2.26738
						CHANNELS 3 Zrotation Yrotation Xrotation
						End Site
						{
							OFFSET 0.00000 -0.00000 1.17015
						}
					}
				}
			}
		}
	}
	JOINT RHipJoint
	{
		OFFSET 0 0 0
		CHANNELS 3 Zrotation Yrotation Xrotation
		JOINT RightHip
		{
			OFFSET -1.46918 -1.72757 0.83774
			CHANNELS 3 Zrotation Yrotation Xrotation
			JOINT RightKnee
			{
				OFFSET -2.49034 -6.84216 0.00000
				CHANNELS 3 Zrotation Yrotation Xrotation
				JOINT RightAnkle
				{
					OFFSET -2.65971 -7.30750 0.00000
					CHANNELS 3 Zrotation Yrotation Xrotation
					JOINT RightToe
					{
						OFFSET -0.19227 -0.52827 2.30785
						CHANNELS 3 Zrotation Yrotation Xrotation
						End Site
						{
							OFFSET -0.00000 -0.00000 1.18972
						}
					}
				}
			}
		}
	}
	JOINT lowerback
	{
		OFFSET 0 0 0
		CHANNELS 3 Zrotation Yrotation Xrotation
		JOINT Chest
		{
			OFFSET 0.02432 2.19909 -0.28000
			CHANNELS 3 Zrotation Yrotation Xrotation
			JOINT Chest2
			{
				OFFSET 0.03714 2.21816 -0.15261
				CHANNELS 3 Zrotation Yrotation Xrotation
				JOINT lowerneck
				{
					OFFSET 0 0 0
					CHANNELS 3 Zrotation Yrotation Xrotation
					JOINT Neck
					{
						OFFSET -0.01896 1.56165 0.21681
						CHANNELS 3 Zrotation Yrotation Xrotation
						JOINT Head
						{
							OFFSET 0.02744 1.56009 0.06764
							CHANNELS 3 Zrotation Yrotation Xrotation
							End Site
							{
								OFFSET 0.01212 1.60574 0.00298
							}
						}
					}
				}
				JOINT LeftCollar
				{
					OFFSET 0 0 0
					CHANNELS 3 Zrotation Yrotation Xrotation
					JOINT LeftShoulder
					{
						OFFSET 3.05595 1.48048 -0.60794
CHANNELS 3 Zrotation Xrotation Yrotation
						JOINT LeftElbow
						{
OFFSET 0 -5.206070 -0.000000
CHANNELS 3 Zrotation Xrotation Yrotation
							JOINT LeftWrist
							{
OFFSET 0 -3.399610 0.000000
CHANNELS 3 Zrotation Xrotation Yrotation
								JOINT lhand
								{
									OFFSET 0 0 0
CHANNELS 3 Zrotation Xrotation Yrotation
									JOINT LFingers
									{
OFFSET 0 -0.519690 0.000000
CHANNELS 3 Zrotation Xrotation Yrotation
										End Site
										{
OFFSET 0 -0.418990 0.000000
										}
									}
								}
								JOINT LThumb
								{
OFFSET 0 0.000000 0.000000
CHANNELS 3 Zrotation Xrotation Yrotation
									End Site
									{
OFFSET 0 -0.425390 0.425390
									}
								}
							}
						}
					}
				}
				JOINT RightCollar
				{
					OFFSET 0 0 0
					CHANNELS 3 Zrotation Yrotation Xrotation
					JOINT RightShoulder
					{
						OFFSET -2.99052 1.57608 -0.69102
CHANNELS 3 Zrotation Xrotation Yrotation
						JOINT RightElbow
						{
OFFSET 0 -5.322140 0.000000
CHANNELS 3 Zrotation Xrotation Yrotation
							JOINT RightWrist
							{
OFFSET 0 -3.512080 0.000000
CHANNELS 3 Zrotation Xrotation Yrotation
								JOINT rhand
								{
									OFFSET 0 0 0
CHANNELS 3 Zrotation Xrotation Yrotation
									JOINT RFingers
									{
OFFSET 0 -0.586680 0.000000
CHANNELS 3 Zrotation Xrotation Yrotation
										End Site
										{
OFFSET 0 -0.473000 0.000000
										}
									}
								}
								JOINT RThumb
								{
OFFSET 0 0.000000 0.000000
CHANNELS 3 Zrotation Xrotation Yrotation
									End Site
									{
OFFSET 0 -0.480220 0.480220
									}
								}
							}
						}
					}
				}
			}
		}
	}
}
MOTION
Frames: 12
Frame Time: 0.008333333333333333
0.167100 17.149700 -15.319700 -2.477900 -1.426000 15.185600 0.000000 0.000000 0.000000 -15.294200 -3.074200 -37.540300 3.866600 11.980700 35.663900 0.625200 -1.980900 -14.390200 0.075300 1.770600 4.872100 0.000000 0.000000 0.000000 17.354100 8.041300 -36.327400 -3.847200 -11.954200 35.570300 -0.532600 6.760800 -13.126600 -0.304700 -3.548800 9.810500 0.740300 -0.245900 10.586200 1.431000 -0.291600 8.195200 1.092000 -0.157300 2.615400 -0.721500 0.827200 -9.333800 -0.738500 1.422400 22.069900 0.014300 0.531000 8.385100 0.000000 -0.000000 0.000000 3.344400 -1.906700 -35.125000 15.487900 -24.821400 3.428200 28.535700 -21.070000 4.146600 0.000000 0.000000 0.000000 -7.125000 0.000000 0.000000 1.426500 25.262100 0.681500 0.000000 -0.000000 0.000000 -3.253900 -1.375800 19.395500 -18.819200 -29.193400 -4.942400 -23.219600 29.210600 25.761000 0.000000 0.000000 0.000000 7.125000 0.000000 -0.000000 7.345000 57.533500 -2.262300
0.159521 17.156039 -15.317972 -2.432655 -1.420094 15.227178 0.000000 0.000000 0.000000 -15.336288 -3.056060 -37.507574 3.836007 11.938915 35.516175 0.618434 -1.962399 -14.313928 0.075230 1.769221 4.868316 0.000000 0.000000 0.000000 17.341645 8.004597 -36.327996 -3.827264 -11.926900 35.473773 -0.526648 6.800317 -13.062874 -0.319018 -3.630586 10.039669 0.689143 -0.254400 10.606781 1.403833 -0.306672 8.232509 1.093747 -0.166357 2.643990 -0.688001 0.824653 -9.312298 -0.773869 1.419705 22.019894 -0.003659 0.529364 8.364725 0.000000 0.000000 0.000000 3.282337 -1.881904 -35.304589 15.574433 -24.940200 3.464553 27.798318 -20.405714 3.013182 0.000000 0.000000 0.000000 -7.125000 0.000000 0.000000 0.909769 26.574061 0.406789 0.000000 0.000000 0.000000 -3.268266 -1.392950 19.509037 -18.797779 -29.166646 -4.931904 -23.208600 29.259541 25.718485 0.000000 0.000000 0.000000 7.125000 0.000000 0.000000 7.338063 57.487162 -2.251977
0.151727 17.161489 -15.316349 -2.448749 -1.398212 15.303934 0.000000 0.000000 0.000000 -15.301532 -3.059133 -37.528318 3.809718 11.902779 35.389014 0.612126 -1.922814 -14.246272 0.072777 1.740038 4.787756 0.000000 0.000000 0.000000 17.392703 8.006025 -36.344229 -3.802141 -11.892386 35.352387 -0.521305 6.794027 -12.999680 -0.328569 -3.683915 10.189048 0.692376 -0.257635 10.593375 1.399204 -0.310672 8.232245 1.087473 -0.168002 2.650967 -0.700423 0.808687 -9.233028 -0.748439 1.392583 21.968947 0.003788 0.518815 8.332591 0.000000 0.000000 0.000000 3.223346 -1.793294 -35.660996 15.585602 -24.955539 3.469295 27.911181 -20.642481 3.336699 0.000000 0.000000 0.000000 -7.125000 0.000000 0.000000 0.985126 26.204594 0.449283 0.000000 0.000000 0.000000 -3.285628 -1.327779 19.653217 -18.809731 -29.181556 -4.937736 -23.237324 29.208128 25.637613 0.000000 0.000000 0.000000 7.125000 0.000000 0.000000 7.271281 57.409902 -2.217751
0.144233 17.167799 -15.313136 -2.452453 -1.346202 15.331778 0.000000 0.000000 0.000000 -15.276495 -3.079219 -37.475920 3.782224 11.864835 35.255523 0.605686 -1.865023 -14.180993 0.069551 1.700852 4.679718 0.000000 0.000000 0.000000 17.446839 7.956462 -36.299186 -3.776724 -11.857192 35.228752 -0.517640 6.779232 -12.954892 -0.331458 -3.699898 10.233909 0.700123 -0.270057 10.577411 1.397189 -0.326990 8.259398 1.082196 -0.175737 2.688595 -0.741313 0.786977 -9.169979 -0.706410 1.359350 21.910862 0.021071 0.504679 8.300756 0.000000 0.000000 0.000000 3.165166 -1.757497 -36.004415 15.609131 -24.987870 3.479218 28.016270 -20.711567 3.700536 0.000000 0.000000 0.000000 -7.125000 0.000000 0.000000 1.052503 25.789509 0.489845 0.000000 0.000000 0.000000 -3.290851 -1.336289 19.755233 -18.789026 -29.155647 -4.927627 -23.166988 29.195535 25.655471 0.000000 0.000000 0.000000 7.125000 0.000000 0.000000 7.355331 57.412848 -2.244112
0.136867 17.174022 -15.310111 -2.455470 -1.304358 15.364804 0.000000 0.000000 0.000000 -15.253840 -3.096676 -37.429730 3.754539 11.826363 35.120586 0.599635 -1.804706 -14.120306 0.066297 1.660558 4.568539 0.000000 0.000000 0.000000 17.496099 7.920774 -36.257152 -3.749834 -11.819798 35.097503 -0.513470 6.760994 -12.903493 -0.336200 -3.726009 10.307157 0.697151 -0.281363 10.565375 1.398203 -0.342406 8.275963 1.086065 -0.183617 2.713033 -0.757990 0.774354 -9.121358 -0.693719 1.341240 21.884710 0.026043 0.496397 8.282802 0.000000 0.000000 0.000000 3.095984 -1.719207 -36.314404 15.674246 -25.076991 3.506758 27.901840 -20.682269 3.638702 0.000000 0.000000 0.000000 -7.125000 0.000000 0.000000 0.968076 25.863826 0.448952 0.000000 0.000000 0.000000 -3.304498 -1.324010 19.871091 -18.779146 -29.143310 -4.922830 -23.129831 29.171750 25.648822 0.000000 0.000000 0.000000 7.125000 0.000000 0.000000 7.392591 57.397808 -2.252892
0.129772 17.180444 -15.306559 -2.459825 -1.262699 15.387549 0.000000 0.000000 0.000000 -15.228891 -3.118107 -37.363020 3.725436 11.785699 34.978127 0.593540 -1.735384 -14.061311 0.062871 1.617693 4.450265 0.000000 0.000000 0.000000 17.547528 7.886285 -36.197645 -3.722188 -11.781206 34.962426 -0.509801 6.732914 -12.856307 -0.339716 -3.745272 10.361087 0.693859 -0.291915 10.549812 1.402551 -0.356927 8.290740 1.093579 -0.191070 2.737384 -0.768825 0.764224 -9.090342 -0.690284 1.328147 21.884944 0.027600 0.489811 8.277061 0.000000 0.000000 0.000000 3.021659 -1.696386 -36.609085 15.774984 -25.214568 3.549542 27.661547 -20.618334 3.355393 0.000000 0.000000 0.000000 -7.125000 0.000000 0.000000 0.795165 26.192311 0.362902 0.000000 0.000000 0.000000 -3.315702 -1.315627 19.979901 -18.770421 -29.132443 -4.918617 -23.090664 29.145874 25.649916 0.000000 0.000000 0.000000 7.125000 0.000000 0.000000 7.435374 57.390294 -2.264734
0.122891 17.187038 -15.302450 -2.466519 -1.227949 15.401936 0.000000 0.000000 0.000000 -15.201725 -3.138019 -37.279948 3.695608 11.743883 34.831952 0.587743 -1.661858 -14.006683 0.059701 1.576489 4.336676 0.000000 0.000000 0.000000 17.600617 7.858358 -36.121230 -3.693474 -11.740989 34.821798 -0.506261 6.698536 -12.810203 -0.342969 -3.763052 10.411003 0.690431 -0.299353 10.529508 1.408057 -0.367482 8.303340 1.101915 -0.196646 2.761906 -0.769012 0.757473 -9.079532 -0.698403 1.320787 21.913809 0.024194 0.485405 8.284888 0.000000 0.000000 0.000000 2.944589 -1.683401 -36.901270 15.896349 -25.379825 3.601391 27.398334 -20.574756 2.999952 0.000000 0.000000 0.000000 -7.125000 0.000000 0.000000 0.605251 26.601498 0.270374 0.000000 0.000000 0.000000 -3.321180 -1.309317 20.079256 -18.765320 -29.126054 -4.916067 -23.056264 29.119677 25.643974 0.000000 0.000000 0.000000 7.125000 0.000000 0.000000 7.469999 57.376640 -2.272838
0.116239 17.193761 -15.297529 -2.475943 -1.204430 15.407871 0.000000 0.000000 0.000000 -15.172870 -3.151725 -37.180890 3.664980 11.700654 34.681284 0.582033 -1.587038 -13.954305 0.056817 1.537824 4.230118 0.000000 0.000000 0.000000 17.655577 7.838511 -36.027063 -3.663675 -11.698848 34.674665 -0.502721 6.661816 -12.763076 -0.346479 -3.781988 10.464286 0.688609 -0.301789 10.503158 1.411780 -0.371382 8.315131 1.106973 -0.198790 2.788940 -0.760853 0.752131 -9.089130 -0.711223 1.315530 21.966179 0.018236 0.481920 8.304478 0.000000 0.000000 0.000000 2.869139 -1.675245 -37.204518 16.020573 -25.548514 3.654787 27.244114 -20.624041 2.797652 0.000000 0.000000 0.000000 -7.125000 0.000000 0.000000 0.492795 26.833495 0.217279 0.000000 0.000000 0.000000 -3.316237 -1.307407 20.164512 -18.762416 -29.122420 -4.914707 -23.022697 29.097228 25.633661 0.000000 0.000000 0.000000 7.125000 0.000000 0.000000 7.501814 57.358607 -2.279362
0.109743 17.200865 -15.291602 -2.486598 -1.193491 15.399704 0.000000 0.000000 0.000000 -15.146084 -3.152583 -37.057951 3.633500 11.655977 34.525577 0.576905 -1.516819 -13.906777 0.054897 1.511382 4.157209 0.000000 0.000000 0.000000 17.711961 7.822558 -35.907108 -3.632554 -11.654672 34.521074 -0.499094 6.626105 -12.715623 -0.350427 -3.803526 10.524711 0.685135 -0.299778 10.471327 1.413773 -0.369783 8.328990 1.110695 -0.198162 2.820897 -0.752619 0.747610 -9.111361 -0.721300 1.311080 22.031543 0.013238 0.478954 8.330797 0.000000 0.000000 0.000000 2.795841 -1.670191 -37.515844 16.135149 -25.703506 3.704366 27.284964 -20.762926 2.854706 0.000000 0.000000 0.000000 -7.125000 0.000000 0.000000 0.522538 26.768240 0.231303 0.000000 0.000000 0.000000 -3.302033 -1.312533 20.240349 -18.759127 -29.118241 -4.913114 -22.999737 29.071976 25.604324 0.000000 0.000000 0.000000 7.125000 0.000000 0.000000 7.513741 57.323224 -2.276502
0.103348 17.208174 -15.284699 -2.496396 -1.189240 15.379677 0.000000 0.000000 0.000000 -15.122227 -3.145922 -36.915821 3.601246 11.609910 34.365654 0.571936 -1.448039 -13.861625 0.053351 1.490591 4.099878 0.000000 0.000000 0.000000 17.767809 7.809236 -35.767813 -3.600951 -11.609598 34.364439 -0.495724 6.588882 -12.670041 -0.354853 -3.827170 10.590902 0.680832 -0.293943 10.434494 1.413046 -0.363122 8.343181 1.111633 -0.195030 2.855857 -0.747570 0.741232 -9.133391 -0.720607 1.302401 22.098799 0.012006 0.474797 8.357556 0.000000 0.000000 0.000000 2.728476 -1.666300 -37.824015 16.245869 -25.852820 3.752517 27.492226 -20.952104 3.109939 0.000000 0.000000 0.000000 -7.125000 0.000000 0.000000 0.673777 26.474658 0.302982 0.000000 0.000000 0.000000 -3.275940 -1.315716 20.309451 -18.760215 -29.119664 -4.913643 -22.989627 29.039017 25.569173 0.000000 0.000000 0.000000 7.125000 0.000000 0.000000 7.509150 57.284679 -2.268130
0.097037 17.215482 -15.277151 -2.500803 -1.186624 15.351673 0.000000 0.000000 0.000000 -15.104601 -3.140542 -36.758172 3.568306 11.562601 34.201615 0.567098 -1.379078 -13.818000 0.052490 1.478557 4.066584 0.000000 0.000000 0.000000 17.817755 7.794627 -35.617085 -3.569560 -11.564390 34.207828 -0.492652 6.549428 -12.627792 -0.358983 -3.848991 10.652133 0.671803 -0.286292 10.392143 1.410720 -0.354599 8.355939 1.113422 -0.191117 2.892360 -0.746782 0.732371 -9.156798 -0.711802 1.289317 22.167913 0.013763 0.468970 8.385212 0.000000 0.000000 0.000000 2.662938 -1.667683 -38.106259 16.362507 -26.009695 3.803588 27.757798 -21.121788 3.380799 0.000000 0.000000 0.000000 -7.125000 0.000000 0.000000 0.867407 26.160226 0.396465 0.000000 0.000000 0.000000 -3.242584 -1.314412 20.379169 -18.767712 -29.129069 -4.917272 -22.995986 28.995105 25.532109 0.000000 0.000000 0.000000 7.125000 0.000000 0.000000 7.485982 57.247863 -2.254446
0.090871 17.222678 -15.269330 -2.498920 -1.180766 15.323113 0.000000 0.000000 0.000000 -15.091652 -3.145761 -36.594052 3.534796 11.514136 34.034182 0.562076 -1.306034 -13.772626 0.051976 1.470890 4.045413 0.000000 0.000000 0.000000 17.859911 7.779215 -35.466330 -3.538723 -11.519792 34.053703 -0.489910 6.505655 -12.588945 -0.363088 -3.870767 10.713359 0.660398 -0.277632 10.338631 1.407200 -0.344971 8.365383 1.115149 -0.186732 2.931325 -0.757624 0.720974 -9.176036 -0.684655 1.270698 22.234154 0.023014 0.461505 8.410909 0.000000 0.000000 0.000000 2.598505 -1.677453 -38.343012 16.497456 -26.190488 3.862993 28.004822 -21.248031 3.561921 0.000000 0.000000 0.000000 -7.125000 0.000000 0.000000 1.048697 25.946750 0.484322 0.000000 0.000000 0.000000 -3.203141 -1.305827 20.452432 -18.786131 -29.152092 -4.926253 -23.012829 28.942843 25.507318 0.000000 0.000000 0.000000 7.125000 0.000000 0.000000 7.456928 57.225969 -2.241691
